<svg width="24" height="24" viewBox="0 0 24 24" fill="none" xmlns="http://www.w3.org/2000/svg">
<g id="link 3" clip-path="url(#clip0_59_37)">
<path id="Vector" d="M7.83499 16.17C7.60499 15.94 7.38899 15.688 7.19399 15.422C6.86899 14.976 6.96699 14.35 7.41399 14.025C7.85999 13.7 8.48499 13.798 8.81099 14.244C8.93999 14.422 9.08499 14.593 9.24799 14.755C10.051 15.558 11.118 16 12.253 16C13.388 16 14.456 15.558 15.258 14.755L20.758 9.25499C22.415 7.59799 22.415 4.90099 20.758 3.24399C19.101 1.587 16.404 1.587 14.747 3.24399L13.689 4.30199C13.298 4.693 12.666 4.693 12.275 4.30199C11.884 3.911 11.884 3.279 12.275 2.888L13.333 1.83C15.77 -0.608005 19.735 -0.608005 22.172 1.83C24.609 4.26699 24.609 8.23199 22.172 10.669L16.672 16.169C15.492 17.35 13.922 18 12.253 18C10.584 18 9.01399 17.35 7.83499 16.17ZM6.25299 24C7.92299 24 9.49199 23.35 10.672 22.169L11.73 21.111C12.121 20.721 12.121 20.088 11.73 19.697C11.34 19.306 10.707 19.307 10.316 19.697L9.25699 20.755C8.45399 21.558 7.38699 22 6.25199 22C5.11699 22 4.04999 21.558 3.24699 20.755C2.44399 19.952 2.00199 18.885 2.00199 17.75C2.00199 16.615 2.44399 15.547 3.24699 14.745L8.74699 9.24499C9.54999 8.44199 10.617 7.99999 11.752 7.99999C12.887 7.99999 13.955 8.44199 14.757 9.24499C14.917 9.40599 15.063 9.57699 15.193 9.75499C15.517 10.202 16.142 10.302 16.59 9.97599C17.037 9.65099 17.136 9.026 16.811 8.57899C16.621 8.317 16.406 8.06599 16.172 7.83199C14.991 6.64999 13.421 5.99999 11.752 5.99999C10.083 5.99999 8.51299 6.64999 7.33299 7.83099L1.83399 13.331C0.652991 14.511 0.00299072 16.081 0.00299072 17.75C0.00299072 19.419 0.652991 20.989 1.83399 22.169C3.01399 23.35 4.58299 24 6.25299 24Z" fill="white"/>
</g>
<defs>
<clipPath id="clip0_59_37">
<rect width="24" height="24" fill="white"/>
</clipPath>
</defs>
</svg>
