<svg width="32" height="32" viewBox="0 0 32 32" fill="none" xmlns="http://www.w3.org/2000/svg">
<path d="M24 15.998C23.9936 15.2965 23.7109 14.6258 23.2134 14.1313L17.4934 8.39798C17.2436 8.14964 16.9056 8.01025 16.5534 8.01025C16.2011 8.01025 15.8632 8.14964 15.6134 8.39798C15.4884 8.52193 15.3892 8.6694 15.3215 8.83188C15.2538 8.99435 15.219 9.16863 15.219 9.34464C15.219 9.52066 15.2538 9.69493 15.3215 9.85741C15.3892 10.0199 15.4884 10.1674 15.6134 10.2913L20 14.6646H6.66671C6.31309 14.6646 5.97395 14.8051 5.7239 15.0552C5.47385 15.3052 5.33337 15.6444 5.33337 15.998C5.33337 16.3516 5.47385 16.6907 5.7239 16.9408C5.97395 17.1908 6.31309 17.3313 6.66671 17.3313H20L15.6134 21.718C15.3623 21.9673 15.2205 22.3061 15.2193 22.6599C15.218 23.0137 15.3574 23.3536 15.6067 23.6046C15.856 23.8557 16.1948 23.9975 16.5487 23.9987C16.9025 24 17.2423 23.8606 17.4934 23.6113L23.2134 17.878C23.7142 17.3802 23.9971 16.7041 24 15.998Z" fill="#000C51"/>
</svg>
